<svg version="1.1" id="Layer_1" xmlns="http://www.w3.org/2000/svg" xmlns:xlink="http://www.w3.org/1999/xlink" x="0px" y="0px"
	 width="100%" viewBox="0 0 1024 672" enable-background="new 0 0 1024 672" xml:space="preserve">
<path fill="#000000" opacity="1.000000" stroke="none" 
	d="
M440.885559,214.920258 
	C464.871155,226.176468 476.382935,249.978912 473.905762,271.377655 
	C470.804840,298.164093 451.283020,317.392059 425.044098,321.456268 
	C393.039948,326.413513 358.324005,298.893738 361.989868,260.837433 
	C365.757324,221.726547 407.193542,198.952194 440.885559,214.920258 
M395.481506,219.907837 
	C377.613251,229.972672 367.718475,244.515030 367.074768,265.728485 
	C366.159576,295.888062 393.394257,317.407471 418.334839,316.896912 
	C454.205048,316.162628 478.807465,279.947784 465.237305,246.763855 
	C455.185516,222.183578 426.400482,207.037094 395.481506,219.907837 
z"/>
<path fill="#000000" opacity="1.000000" stroke="none" 
	d="
M644.211304,286.975525 
	C637.166870,290.471344 634.406738,288.788757 634.587830,281.680481 
	C634.685303,277.852814 634.659790,274.019287 634.575317,270.190918 
	C634.532715,268.259857 633.999878,266.304688 631.602478,266.353119 
	C629.422241,266.397095 628.414917,268.036530 628.378784,270.091736 
	C628.299744,274.586609 628.206726,279.088104 628.367188,283.578033 
	C628.485657,286.891663 627.291077,288.565552 623.844299,288.612091 
	C620.402344,288.658508 618.582275,287.466919 618.655762,283.678925 
	C618.801147,276.187714 618.633789,268.691010 618.692383,261.197357 
	C618.728638,256.556366 621.576416,254.845749 625.431152,257.544800 
	C627.760681,259.175964 629.264526,259.270081 631.555359,257.780853 
	C634.599121,255.802170 637.981201,255.701065 640.836792,258.176300 
	C642.816772,259.892578 644.240173,259.175049 646.167358,258.186707 
	C653.713074,254.316956 659.444702,257.395355 660.402710,265.748169 
	C661.103455,271.858337 660.184021,278.048828 661.299988,284.157104 
	C661.755920,286.652710 660.172668,287.814026 657.895691,288.144318 
	C654.873657,288.582733 652.126465,288.267059 650.960388,284.866608 
	C649.463928,280.502747 650.129761,275.964386 649.997620,271.486359 
	C649.939087,269.502106 650.828125,266.468628 647.578918,266.479462 
	C644.510254,266.489655 644.549561,269.302521 644.331909,271.714874 
	C643.882751,276.694733 645.630981,281.649109 644.211304,286.975525 
z"/>
<path fill="#000000" opacity="1.000000" stroke="none" 
	d="
M590.312073,266.052490 
	C586.190369,260.495361 586.889587,258.500946 593.132690,257.151001 
	C595.239197,256.695526 597.390076,256.378357 599.537476,256.190948 
	C606.667175,255.568848 611.766602,260.039398 612.170044,267.188843 
	C612.468567,272.477570 611.556946,277.812042 613.007568,283.069763 
	C613.538513,284.994049 612.408325,286.666901 610.880676,287.816925 
	C609.469299,288.879333 607.888672,288.377228 606.738892,287.368744 
	C604.791443,285.660645 603.235718,285.819305 601.068542,287.221985 
	C597.210876,289.718842 593.033447,289.656647 589.513611,286.553955 
	C586.652405,284.031891 585.164551,280.649872 586.215820,276.703705 
	C587.470642,271.993195 590.787842,269.577148 595.482361,268.831726 
	C597.386597,268.529388 599.483643,269.350403 601.437012,267.741882 
	C601.128967,265.034424 599.390259,264.277527 596.988159,264.674561 
	C594.867249,265.025116 592.790100,265.639679 590.312073,266.052490 
M596.197266,278.430573 
	C596.862732,281.317810 598.770874,281.159393 600.655151,279.960449 
	C602.077271,279.055573 602.381104,277.105621 601.165588,276.110474 
	C599.115967,274.432404 597.198364,275.023926 596.197266,278.430573 
z"/>
<path fill="#000000" opacity="1.000000" stroke="none" 
	d="
M513.707886,280.618408 
	C512.500732,284.858917 511.874939,288.573212 506.112549,288.356232 
	C500.674072,288.151428 497.871246,286.045044 496.605133,280.915314 
	C495.133820,274.954071 493.267731,269.091034 491.625885,263.170715 
	C490.981415,260.846893 489.524536,258.166565 493.044647,256.868256 
	C496.543762,255.577698 499.330994,256.800842 500.937317,260.086884 
	C502.477600,263.237915 503.033264,266.700226 503.560303,270.168274 
	C503.929901,272.600159 504.756439,274.962646 506.171631,277.459259 
	C507.351959,271.988922 508.709930,266.548828 509.647491,261.037231 
	C510.230713,257.608521 512.131714,256.735779 515.204346,256.815735 
	C518.449890,256.900269 519.797974,258.135803 518.861816,261.495178 
	C517.125244,267.726746 515.517944,273.994354 513.707886,280.618408 
z"/>
<path fill="#000000" opacity="1.000000" stroke="none" 
	d="
M580.854126,256.887177 
	C584.126282,257.707123 583.922668,260.012054 583.744019,262.172150 
	C583.577576,264.183807 582.126526,264.976929 580.279602,265.067657 
	C577.675598,265.195618 576.765808,266.791931 576.949524,269.072021 
	C577.303711,273.466461 574.838318,278.922882 581.684204,280.960358 
	C583.077087,281.374878 583.341675,283.737122 582.997803,285.475525 
	C582.651184,287.227356 581.310486,287.743286 579.730469,288.050354 
	C570.848083,289.776459 566.683289,286.432220 566.618896,277.477020 
	C566.599792,274.812775 566.579407,272.148163 566.520020,269.484619 
	C566.468750,267.184021 566.639771,265.142853 563.569946,263.992401 
	C560.800720,262.954590 560.827393,258.707733 563.556213,257.196106 
	C565.632019,256.046234 566.321289,254.559952 566.699707,252.524719 
	C567.375000,248.892517 569.932739,247.728790 573.268738,247.742508 
	C576.988464,247.757812 576.832520,250.562622 576.914246,253.054901 
	C576.992004,255.428925 577.875244,256.882019 580.854126,256.887177 
z"/>
<path fill="#000000" opacity="1.000000" stroke="none" 
	d="
M523.565674,269.279785 
	C523.212891,267.233795 523.017090,265.570709 522.481750,264.025330 
	C521.666321,261.671631 521.239685,259.338287 523.412781,257.635132 
	C525.558167,255.953674 527.473389,257.468414 529.274963,258.692749 
	C530.081177,259.240662 530.862366,259.825409 531.673401,260.406647 
	C533.871582,259.335938 535.169617,256.980499 537.722900,256.925964 
	C539.824585,256.881104 542.521667,256.185486 542.963318,259.191223 
	C543.369446,261.955109 543.280151,265.745117 539.863892,266.104523 
	C533.460876,266.778168 532.952148,270.593506 533.298950,275.545868 
	C533.461182,277.862885 533.197327,280.208557 533.335754,282.528717 
	C533.540833,285.964600 532.962280,288.290222 528.642761,288.331909 
	C524.471924,288.372131 522.901367,286.648010 523.112244,282.673553 
	C523.341125,278.358215 523.424072,274.035126 523.565674,269.279785 
z"/>
<path fill="#000000" opacity="1.000000" stroke="none" 
	d="
M549.470398,284.071777 
	C549.533325,279.653473 549.586670,275.660980 549.575928,271.668610 
	C549.570068,269.483154 549.445435,267.171021 547.806091,265.593628 
	C545.269226,263.152649 543.418030,260.539673 546.396057,257.539856 
	C548.777832,255.140610 556.133484,257.126343 557.812561,260.322784 
	C558.823792,262.247925 559.385132,264.312531 559.360046,266.550110 
	C559.296509,272.206696 559.309875,277.864502 559.341248,283.521576 
	C559.354919,285.992340 559.346802,288.418732 555.903137,288.291779 
	C553.106628,288.188721 549.436584,289.422852 549.470398,284.071777 
z"/>
<path fill="#000000" opacity="1.000000" stroke="none" 
	d="
M556.127441,253.267212 
	C552.652283,254.074936 549.261841,254.989365 547.927307,250.868073 
	C547.289062,248.897018 547.129822,246.418503 549.162231,244.929428 
	C551.357849,243.320816 553.919250,243.488983 556.175781,244.817596 
	C558.339233,246.091415 558.428711,248.358185 557.920471,250.541855 
	C557.710510,251.443878 556.979553,252.224625 556.127441,253.267212 
z"/>
<path fill="#000000" opacity="1.000000" stroke="none" 
	d="
M457.905823,241.184875 
	C462.272797,247.929626 464.227509,255.114792 465.008240,262.643097 
	C465.217346,264.659668 465.872375,267.636719 462.838043,267.866882 
	C459.823151,268.095520 460.100403,265.133148 459.893951,263.053009 
	C457.941010,243.374710 444.767273,228.355576 426.171051,224.641693 
	C403.892426,220.192352 381.268738,234.216949 376.742523,256.345123 
	C371.905212,279.994141 384.372742,299.471039 406.016968,306.396637 
	C409.298920,307.446716 412.911987,307.459595 416.370636,307.961060 
	C418.059265,308.205902 419.991943,308.488342 419.858856,310.682709 
	C419.728180,312.837738 417.739746,313.082428 416.071930,313.063141 
	C405.657288,312.942688 396.494720,309.083099 388.548065,302.702942 
	C372.115082,289.509247 366.605255,268.858185 373.833954,249.182907 
	C380.431458,231.225693 399.057343,218.215958 418.421783,218.806793 
	C435.169464,219.317764 448.386108,226.806244 457.905823,241.184875 
z"/>
</svg>