<svg width="31" height="18" viewBox="0 0 31 18" fill="none" xmlns="http://www.w3.org/2000/svg">
<path fill-rule="evenodd" clip-rule="evenodd" d="M20.0378 2.3932C19.677 1.7578 19.3333 0.98769 19.3333 0.25H21.3333C21.3333 0.43981 21.4478 0.825951 21.777 1.40555C22.0858 1.94932 22.5113 2.54048 22.9588 3.10133L22.9599 3.10269C24.0878 4.52152 25.4269 5.74822 26.9499 6.67926C27.5345 7.03658 28.1615 7.37436 28.768 7.62036C29.3855 7.87085 29.9188 8 30.3333 8V10C29.9187 10 29.3851 10.1292 28.7674 10.3797C28.1609 10.6256 27.534 10.9633 26.9504 11.3204C25.427 12.2529 24.0876 13.4799 22.9594 14.8967L22.9591 14.897C22.5117 15.4583 22.0861 16.0505 21.7771 16.5949C21.4477 17.1756 21.3333 17.5616 21.3333 17.75H19.3333C19.3333 17.0134 19.6772 16.2432 20.0377 15.6079C20.4187 14.9365 20.9148 14.2531 21.3948 13.6508C22.5054 12.2561 23.8142 11.0081 25.3072 10H0.333344V8H25.3066C23.8141 6.9929 22.5056 5.74495 21.3952 4.34844" fill="#101010"/>
</svg>