<svg width="24" height="19" viewBox="0 0 24 19" xmlns="http://www.w3.org/2000/svg">
<path fill-rule="evenodd" clip-rule="evenodd" d="M1 2.42757V4.2206L12 10.9898L23 4.2206V2.42757C19.9674 1.9778 14.855 1.75 12 1.75C9.145 1.75 4.0326 1.9778 1 2.42757ZM23 5.39478L12.2665 12H11.7335L1 5.39478V17.9932C4.04668 17.4959 9.01459 17.25 12 17.25C14.9854 17.25 19.9533 17.4959 23 17.9932V5.39478ZM0.417801 1.5068C3.45842 1.00003 8.99068 0.75 12 0.75C15.0093 0.75 20.5416 1.00003 23.5822 1.5068L24 1.57644V19H22.9586L22.9178 18.9932C19.9566 18.4997 14.9876 18.25 12 18.25C9.01242 18.25 4.04335 18.4997 1.0822 18.9932L1.04138 19H0V1.57644L0.417801 1.5068Z" fill="white"/>
</svg>