<svg width="21" height="22" viewBox="0 0 21 22" fill="none" xmlns="http://www.w3.org/2000/svg">
<path d="M17.6502 18.1173H14.6539V13.4249C14.6539 12.3059 14.6339 10.866 13.0954 10.866C11.5349 10.866 11.2958 12.0847 11.2958 13.3442V18.1173H8.30043V8.46755H11.1772V9.78587H11.2171C11.804 8.78343 12.8941 8.18455 14.055 8.2274C17.0922 8.2274 17.6512 10.2253 17.6512 12.8231L17.6502 18.1173ZM4.91943 7.14823C3.95884 7.14823 3.18061 6.37 3.18061 5.40941C3.18061 4.44882 3.95884 3.67058 4.91943 3.67058C5.88002 3.67058 6.65826 4.44882 6.65826 5.40941C6.65826 6.37 5.88002 7.14823 4.91943 7.14823ZM6.41712 18.1173H3.41777V8.46755H6.41712V18.1173ZM19.1439 0.888462H1.91211C1.098 0.879494 0.430375 1.53218 0.42041 2.34628V19.6488C0.430375 20.4639 1.098 21.1166 1.91211 21.1077H19.1439C19.96 21.1176 20.6306 20.4649 20.6416 19.6488V2.34529C20.6296 1.52919 19.959 0.876504 19.1439 0.887465" fill="white"/>
</svg>