<svg width="22" height="24" viewBox="0 0 22 24" xmlns="http://www.w3.org/2000/svg">
<path fill-rule="evenodd" clip-rule="evenodd" d="M2.03592 0.423019L2.27735 0.583972C9.7581 5.57114 14.7247 8.3007 21.1795 10.7833L21.5 10.9066V13.0934L21.1795 13.2167C14.7247 15.6993 9.7581 18.4289 2.27735 23.416L2.03592 23.577L0.474483 22.7963L0.501617 22.4598L0.50716 22.39L0.522953 22.1869C0.536572 22.0096 0.556047 21.7514 0.579425 21.428C0.626185 20.7812 0.688541 19.8739 0.750893 18.8326C0.875741 16.7476 0.999999 14.1347 0.999999 12C0.999999 9.86534 0.875741 7.25235 0.750893 5.16738C0.688541 4.12611 0.626185 3.21884 0.579425 2.57199C0.556047 2.24859 0.536572 1.99036 0.522953 1.81311L0.50716 1.60997L0.501699 1.54121L0.999999 1.5L0.501617 1.54019L0.474483 1.20374L2.03592 0.423019ZM1.52463 1.7967C1.53798 1.97153 1.55584 2.20968 1.57682 2.49988C1.62381 3.14991 1.68646 4.06138 1.7491 5.10761C1.87426 7.19764 2 9.83465 2 12C2 14.1653 1.87426 16.8023 1.7491 18.8924C1.68646 19.9386 1.62381 20.8501 1.57682 21.5001C1.55584 21.7903 1.53798 22.0285 1.52463 22.2033L1.96425 22.4231C9.22795 17.593 14.1796 14.8649 20.5 12.4073V11.5927C14.1796 9.13506 9.22795 6.40704 1.96425 1.57689L1.52463 1.7967Z" fill="black"/>
</svg>