<svg width="325" height="125" xmlns="http://www.w3.org/2000/svg" xml:space="preserve" enable-background="new 0 0 1024 672" version="1.1">

 <g>
  <title>Layer 1</title>
  <path id="svg_1" d="m89.88556,10.92026c23.98559,11.25621 35.49737,35.05865 33.0202,56.4574c-3.10092,26.78643 -22.62274,46.0144 -48.86166,50.07861c-32.00415,4.95724 -66.7201,-22.56253 -63.05423,-60.61884c3.76745,-39.11088 45.20367,-61.88524 78.89569,-45.91717m-45.40405,4.98758c-17.86826,10.06483 -27.76303,24.60719 -28.40674,45.82064c-0.91519,30.15958 26.31949,51.67899 51.26007,51.16843c35.87021,-0.73428 60.47262,-36.94913 46.90246,-70.13305c-10.05178,-24.58028 -38.83682,-39.72677 -69.75579,-26.85602z" fill="#000000"/>
  <path id="svg_2" d="m293.2113,82.97553c-7.04443,3.49581 -9.80456,1.81323 -9.62347,-5.29505c0.09747,-3.82767 0.07196,-7.66119 -0.01251,-11.48956c-0.0426,-1.93106 -0.57544,-3.88623 -2.97284,-3.8378c-2.18024,0.04397 -3.18756,1.68341 -3.2237,3.73862c-0.07904,4.49487 -0.17205,8.99636 -0.01159,13.48629c0.11847,3.31363 -1.07611,4.98752 -4.52289,5.03406c-3.44196,0.04642 -5.26203,-1.14517 -5.18854,-4.93317c0.14539,-7.49121 -0.02197,-14.98791 0.03662,-22.48156c0.03626,-4.64099 2.88404,-6.35161 6.73877,-3.65256c2.32953,1.63116 3.83338,1.72528 6.12421,0.23605c3.04376,-1.97868 6.42584,-2.07979 9.28143,0.39545c1.97998,1.71628 3.40338,0.99875 5.33057,0.01041c7.54571,-3.86975 13.27734,-0.79136 14.23535,7.56146c0.70075,6.11017 -0.21869,12.30066 0.89728,18.40893c0.45593,2.49561 -1.12732,3.65693 -3.4043,3.98722c-3.02203,0.43841 -5.76922,0.12274 -6.9353,-3.27771c-1.49646,-4.36386 -0.83063,-8.90222 -0.96277,-13.38025c-0.05853,-1.98425 0.83051,-5.01773 -2.4187,-5.0069c-3.06867,0.0102 -3.02936,2.82306 -3.24701,5.23541c-0.44916,4.97986 1.29907,9.93424 -0.12061,15.26066z" fill="#000000"/>
  <path id="svg_3" d="m239.31207,62.05249c-4.1217,-5.55713 -3.42248,-7.55154 2.82062,-8.90149c2.10651,-0.45547 4.25739,-0.77264 6.40479,-0.96005c7.1297,-0.6221 12.22912,3.84845 12.63256,10.99789c0.29853,5.28873 -0.61309,10.6232 0.83753,15.88092c0.53094,1.92429 -0.59925,3.59714 -2.12689,4.74717c-1.41138,1.0624 -2.99201,0.5603 -4.14179,-0.44819c-1.94745,-1.7081 -3.50317,-1.54944 -5.67035,-0.14675c-3.85766,2.49685 -8.03509,2.43466 -11.55493,-0.66804c-2.8612,-2.52206 -4.34906,-5.90408 -3.29779,-9.85024c1.25482,-4.71051 4.57202,-7.12656 9.26654,-7.87198c1.90424,-0.30234 4.00128,0.51867 5.95465,-1.08985c-0.30804,-2.70746 -2.04675,-3.46435 -4.44885,-3.06732c-2.12091,0.35056 -4.19806,0.96512 -6.67609,1.37793m5.8852,12.37808c0.66546,2.88724 2.5736,2.72882 4.45788,1.52988c1.42212,-0.90488 1.72595,-2.85483 0.51044,-3.84998c-2.04962,-1.67807 -3.96723,-1.08654 -4.96832,2.3201z" fill="#000000"/>
  <path id="svg_4" d="m162.70789,76.61841c-1.20716,4.24051 -1.83295,7.9548 -7.59534,7.73782c-5.43848,-0.2048 -8.2413,-2.31119 -9.50742,-7.44092c-1.47131,-5.96124 -3.3374,-11.82428 -4.97925,-17.7446c-0.64446,-2.32382 -2.10134,-5.00415 1.41877,-6.30245c3.49911,-1.29056 6.28634,-0.06742 7.89267,3.21862c1.54028,3.15103 2.09594,6.61335 2.62298,10.08139c0.3696,2.43189 1.19614,4.79438 2.61133,7.29099c1.18033,-5.47034 2.5383,-10.91043 3.47586,-16.42203c0.58322,-3.42871 2.48422,-4.30145 5.55686,-4.22149c3.24554,0.08453 4.59362,1.32006 3.65747,4.67944c-1.73658,6.23157 -3.34388,12.49917 -5.15393,19.12323z" fill="#000000"/>
  <path id="svg_5" d="m229.85413,52.88718c3.27215,0.81994 3.06854,3.12487 2.88989,5.28497c-0.16644,2.01166 -1.61749,2.80478 -3.46442,2.89551c-2.604,0.12796 -3.51379,1.72427 -3.33008,4.00436c0.35419,4.39444 -2.1112,9.85086 4.73468,11.88834c1.39289,0.41452 1.65748,2.77676 1.3136,4.51517c-0.34662,1.75183 -1.68731,2.26776 -3.26733,2.57482c-8.88239,1.72611 -13.04718,-1.61813 -13.11157,-10.57333c-0.01911,-2.66425 -0.03949,-5.32886 -0.09888,-7.9924c-0.05127,-2.3006 0.11975,-4.34177 -2.95007,-5.49222c-2.76923,-1.03781 -2.74256,-5.28467 -0.01374,-6.79629c2.07581,-1.14988 2.76508,-2.63616 3.1435,-4.67139c0.67529,-3.6322 3.23303,-4.79593 6.56903,-4.78221c3.71972,0.0153 3.56378,2.82011 3.64551,5.31239c0.07775,2.37402 0.96099,3.82712 3.93988,3.83228z" fill="#000000"/>
  <path id="svg_6" d="m172.56567,65.27979c-0.35278,-2.046 -0.54858,-3.70908 -1.08392,-5.25446c-0.81543,-2.3537 -1.24206,-4.68704 0.93103,-6.3902c2.14539,-1.68146 4.06061,-0.16672 5.86218,1.05762c0.80622,0.54791 1.58741,1.13266 2.39844,1.7139c2.19818,-1.07071 3.49622,-3.42615 6.0495,-3.48069c2.10168,-0.04486 4.79877,-0.74047 5.24042,2.26526c0.40613,2.76389 0.31683,6.5539 -3.09943,6.9133c-6.40301,0.67365 -6.91174,4.48899 -6.56494,9.44135c0.16223,2.31702 -0.10162,4.66269 0.0368,6.98285c0.20508,3.43588 -0.37347,5.7615 -4.69299,5.80319c-4.17084,0.04022 -5.74139,-1.6839 -5.53052,-5.65836c0.22889,-4.31534 0.31183,-8.63842 0.45343,-13.39376z" fill="#000000"/>
  <path id="svg_7" d="m198.4704,80.07178c0.06292,-4.41831 0.11627,-8.4108 0.10553,-12.40317c-0.00586,-2.18546 -0.1305,-4.49759 -1.76984,-6.07498c-2.53686,-2.44098 -4.38806,-5.05396 -1.41003,-8.05377c2.38177,-2.39925 9.73742,-0.41352 11.4165,2.78292c1.01123,1.92515 1.57257,3.98975 1.54749,6.22733c-0.06354,5.65659 -0.05017,11.31439 -0.0188,16.97147c0.01367,2.47076 0.00555,4.89715 -3.43811,4.7702c-2.79651,-0.10306 -6.46656,1.13107 -6.43274,-4.22z" fill="#000000"/>
  <path id="svg_8" d="m205.12744,49.26721c-3.47516,0.80773 -6.8656,1.72215 -8.20013,-2.39914c-0.63825,-1.97105 -0.79749,-4.44957 1.23492,-5.93864c2.19562,-1.60861 4.75702,-1.44045 7.01355,-0.11183c2.16345,1.27382 2.25293,3.54058 1.74469,5.72425c-0.20996,0.90203 -0.94092,1.68278 -1.79303,2.72536z" fill="#000000"/>
  <path id="svg_9" d="m106.90582,37.18488c4.36698,6.74475 6.32169,13.92991 7.10242,21.45822c0.20911,2.01657 0.86413,4.99362 -2.1702,5.22378c-3.01489,0.22864 -2.73764,-2.73373 -2.94409,-4.81387c-1.95294,-19.6783 -15.12668,-34.69743 -33.7229,-38.41132c-22.27862,-4.44934 -44.90231,9.57526 -49.42853,31.70343c-4.83731,23.64902 7.63022,43.12592 29.27445,50.05152c3.28195,1.05008 6.89502,1.06295 10.35367,1.56442c1.68862,0.24484 3.6213,0.52728 3.48822,2.72165c-0.13068,2.15503 -2.11911,2.39972 -3.78693,2.38043c-10.41464,-0.12045 -19.57721,-3.98004 -27.52386,-10.3602c-16.43299,-13.19369 -21.94282,-33.84476 -14.71412,-53.52003c6.59751,-17.95722 25.22339,-30.96695 44.58783,-30.37612c16.74768,0.51097 29.96433,7.99945 39.48404,22.37809z" fill="#000000"/>
 </g>
</svg>